<svg xmlns="http://www.w3.org/2000/svg" viewBox="0 0 900 460" width="900" height="460">
<rect width="900" height="460" fill="#ffffff"/>
<text x="30.0" y="26.0" font-family="system-ui,-apple-system,Segoe UI,sans-serif" font-size="17" fill="#1f2328" text-anchor="start" font-weight="600">Walk-forward: in-sample vs out-of-sample Sharpe</text>
<text x="30.0" y="44.0" font-family="system-ui,-apple-system,Segoe UI,sans-serif" font-size="12" fill="#656d76" text-anchor="start" font-weight="normal">mean in-sample +1.03 vs out-of-sample +0.38 (decay 0.65) - the cost of fitting parameters</text>
<line x1="78" y1="398.0" x2="874" y2="398.0" stroke="#e4e8ec"/>
<text x="68.0" y="402.0" font-family="system-ui,-apple-system,Segoe UI,sans-serif" font-size="12" fill="#656d76" text-anchor="end" font-weight="normal">-1.8</text>
<line x1="78" y1="340.3" x2="874" y2="340.3" stroke="#e4e8ec"/>
<text x="68.0" y="344.3" font-family="system-ui,-apple-system,Segoe UI,sans-serif" font-size="12" fill="#656d76" text-anchor="end" font-weight="normal">-1.0</text>
<line x1="78" y1="282.7" x2="874" y2="282.7" stroke="#e4e8ec"/>
<text x="68.0" y="286.7" font-family="system-ui,-apple-system,Segoe UI,sans-serif" font-size="12" fill="#656d76" text-anchor="end" font-weight="normal">-0.3</text>
<line x1="78" y1="225.0" x2="874" y2="225.0" stroke="#e4e8ec"/>
<text x="68.0" y="229.0" font-family="system-ui,-apple-system,Segoe UI,sans-serif" font-size="12" fill="#656d76" text-anchor="end" font-weight="normal">+0.4</text>
<line x1="78" y1="167.3" x2="874" y2="167.3" stroke="#e4e8ec"/>
<text x="68.0" y="171.3" font-family="system-ui,-apple-system,Segoe UI,sans-serif" font-size="12" fill="#656d76" text-anchor="end" font-weight="normal">+1.2</text>
<line x1="78" y1="109.7" x2="874" y2="109.7" stroke="#e4e8ec"/>
<text x="68.0" y="113.7" font-family="system-ui,-apple-system,Segoe UI,sans-serif" font-size="12" fill="#656d76" text-anchor="end" font-weight="normal">+1.9</text>
<line x1="78" y1="52.0" x2="874" y2="52.0" stroke="#e4e8ec"/>
<text x="68.0" y="56.0" font-family="system-ui,-apple-system,Segoe UI,sans-serif" font-size="12" fill="#656d76" text-anchor="end" font-weight="normal">+2.7</text>
<line x1="78" y1="259.5" x2="874" y2="259.5" stroke="#656d76"/>
<rect x="85.8" y="241.3" width="12.6" height="18.3" fill="#93c5fd" rx="2"/>
<rect x="99.6" y="259.5" width="12.6" height="1.0" fill="#2563eb" rx="2"/>
<text x="98.9" y="422.0" font-family="system-ui,-apple-system,Segoe UI,sans-serif" font-size="12" fill="#656d76" text-anchor="middle" font-weight="normal">fold 1</text>
<text x="98.9" y="436.0" font-family="system-ui,-apple-system,Segoe UI,sans-serif" font-size="11" fill="#656d76" text-anchor="middle" font-weight="normal">5/200</text>
<rect x="127.6" y="202.1" width="12.6" height="57.5" fill="#93c5fd" rx="2"/>
<rect x="141.5" y="259.5" width="12.6" height="1.0" fill="#2563eb" rx="2"/>
<text x="140.8" y="422.0" font-family="system-ui,-apple-system,Segoe UI,sans-serif" font-size="12" fill="#656d76" text-anchor="middle" font-weight="normal">fold 2</text>
<text x="140.8" y="436.0" font-family="system-ui,-apple-system,Segoe UI,sans-serif" font-size="11" fill="#656d76" text-anchor="middle" font-weight="normal">5/200</text>
<rect x="169.5" y="122.4" width="12.6" height="137.2" fill="#93c5fd" rx="2"/>
<rect x="183.4" y="259.5" width="12.6" height="1.0" fill="#2563eb" rx="2"/>
<text x="182.7" y="422.0" font-family="system-ui,-apple-system,Segoe UI,sans-serif" font-size="12" fill="#656d76" text-anchor="middle" font-weight="normal">fold 3</text>
<text x="182.7" y="436.0" font-family="system-ui,-apple-system,Segoe UI,sans-serif" font-size="11" fill="#656d76" text-anchor="middle" font-weight="normal">5/200</text>
<rect x="211.4" y="165.9" width="12.6" height="93.7" fill="#93c5fd" rx="2"/>
<rect x="225.3" y="259.5" width="12.6" height="1.0" fill="#2563eb" rx="2"/>
<text x="224.6" y="422.0" font-family="system-ui,-apple-system,Segoe UI,sans-serif" font-size="12" fill="#656d76" text-anchor="middle" font-weight="normal">fold 4</text>
<text x="224.6" y="436.0" font-family="system-ui,-apple-system,Segoe UI,sans-serif" font-size="11" fill="#656d76" text-anchor="middle" font-weight="normal">20/50</text>
<rect x="253.3" y="191.8" width="12.6" height="67.7" fill="#93c5fd" rx="2"/>
<rect x="267.2" y="178.9" width="12.6" height="80.6" fill="#2563eb" rx="2"/>
<text x="266.5" y="422.0" font-family="system-ui,-apple-system,Segoe UI,sans-serif" font-size="12" fill="#656d76" text-anchor="middle" font-weight="normal">fold 5</text>
<text x="266.5" y="436.0" font-family="system-ui,-apple-system,Segoe UI,sans-serif" font-size="11" fill="#656d76" text-anchor="middle" font-weight="normal">20/50</text>
<rect x="295.2" y="187.1" width="12.6" height="72.4" fill="#93c5fd" rx="2"/>
<rect x="309.0" y="114.6" width="12.6" height="144.9" fill="#2563eb" rx="2"/>
<text x="308.4" y="422.0" font-family="system-ui,-apple-system,Segoe UI,sans-serif" font-size="12" fill="#656d76" text-anchor="middle" font-weight="normal">fold 6</text>
<text x="308.4" y="436.0" font-family="system-ui,-apple-system,Segoe UI,sans-serif" font-size="11" fill="#656d76" text-anchor="middle" font-weight="normal">20/50</text>
<rect x="337.1" y="195.3" width="12.6" height="64.3" fill="#93c5fd" rx="2"/>
<rect x="350.9" y="203.1" width="12.6" height="56.4" fill="#2563eb" rx="2"/>
<text x="350.3" y="422.0" font-family="system-ui,-apple-system,Segoe UI,sans-serif" font-size="12" fill="#656d76" text-anchor="middle" font-weight="normal">fold 7</text>
<text x="350.3" y="436.0" font-family="system-ui,-apple-system,Segoe UI,sans-serif" font-size="11" fill="#656d76" text-anchor="middle" font-weight="normal">10/100</text>
<rect x="379.0" y="210.8" width="12.6" height="48.7" fill="#93c5fd" rx="2"/>
<rect x="392.8" y="259.5" width="12.6" height="49.3" fill="#2563eb" rx="2"/>
<text x="392.2" y="422.0" font-family="system-ui,-apple-system,Segoe UI,sans-serif" font-size="12" fill="#656d76" text-anchor="middle" font-weight="normal">fold 8</text>
<text x="392.2" y="436.0" font-family="system-ui,-apple-system,Segoe UI,sans-serif" font-size="11" fill="#656d76" text-anchor="middle" font-weight="normal">10/50</text>
<rect x="420.9" y="174.6" width="12.6" height="84.9" fill="#93c5fd" rx="2"/>
<rect x="434.7" y="259.5" width="12.6" height="1.0" fill="#2563eb" rx="2"/>
<text x="434.1" y="422.0" font-family="system-ui,-apple-system,Segoe UI,sans-serif" font-size="12" fill="#656d76" text-anchor="middle" font-weight="normal">fold 9</text>
<text x="434.1" y="436.0" font-family="system-ui,-apple-system,Segoe UI,sans-serif" font-size="11" fill="#656d76" text-anchor="middle" font-weight="normal">5/150</text>
<rect x="462.8" y="146.8" width="12.6" height="112.7" fill="#93c5fd" rx="2"/>
<rect x="476.6" y="259.5" width="12.6" height="1.0" fill="#2563eb" rx="2"/>
<text x="476.0" y="422.0" font-family="system-ui,-apple-system,Segoe UI,sans-serif" font-size="12" fill="#656d76" text-anchor="middle" font-weight="normal">fold 10</text>
<text x="476.0" y="436.0" font-family="system-ui,-apple-system,Segoe UI,sans-serif" font-size="11" fill="#656d76" text-anchor="middle" font-weight="normal">30/150</text>
<rect x="504.7" y="128.1" width="12.6" height="131.4" fill="#93c5fd" rx="2"/>
<rect x="518.5" y="259.5" width="12.6" height="1.0" fill="#2563eb" rx="2"/>
<text x="517.9" y="422.0" font-family="system-ui,-apple-system,Segoe UI,sans-serif" font-size="12" fill="#656d76" text-anchor="middle" font-weight="normal">fold 11</text>
<text x="517.9" y="436.0" font-family="system-ui,-apple-system,Segoe UI,sans-serif" font-size="11" fill="#656d76" text-anchor="middle" font-weight="normal">30/150</text>
<rect x="546.6" y="227.8" width="12.6" height="31.7" fill="#93c5fd" rx="2"/>
<rect x="560.4" y="259.5" width="12.6" height="107.5" fill="#2563eb" rx="2"/>
<text x="559.8" y="422.0" font-family="system-ui,-apple-system,Segoe UI,sans-serif" font-size="12" fill="#656d76" text-anchor="middle" font-weight="normal">fold 12</text>
<text x="559.8" y="436.0" font-family="system-ui,-apple-system,Segoe UI,sans-serif" font-size="11" fill="#656d76" text-anchor="middle" font-weight="normal">20/50</text>
<rect x="588.5" y="259.5" width="12.6" height="1.0" fill="#93c5fd" rx="2"/>
<rect x="602.3" y="180.6" width="12.6" height="78.9" fill="#2563eb" rx="2"/>
<text x="601.7" y="422.0" font-family="system-ui,-apple-system,Segoe UI,sans-serif" font-size="12" fill="#656d76" text-anchor="middle" font-weight="normal">fold 13</text>
<text x="601.7" y="436.0" font-family="system-ui,-apple-system,Segoe UI,sans-serif" font-size="11" fill="#656d76" text-anchor="middle" font-weight="normal">30/200</text>
<rect x="630.4" y="201.1" width="12.6" height="58.4" fill="#93c5fd" rx="2"/>
<rect x="644.2" y="183.3" width="12.6" height="76.2" fill="#2563eb" rx="2"/>
<text x="643.6" y="422.0" font-family="system-ui,-apple-system,Segoe UI,sans-serif" font-size="12" fill="#656d76" text-anchor="middle" font-weight="normal">fold 14</text>
<text x="643.6" y="436.0" font-family="system-ui,-apple-system,Segoe UI,sans-serif" font-size="11" fill="#656d76" text-anchor="middle" font-weight="normal">50/150</text>
<rect x="672.3" y="181.3" width="12.6" height="78.2" fill="#93c5fd" rx="2"/>
<rect x="686.1" y="259.5" width="12.6" height="1.0" fill="#2563eb" rx="2"/>
<text x="685.5" y="422.0" font-family="system-ui,-apple-system,Segoe UI,sans-serif" font-size="12" fill="#656d76" text-anchor="middle" font-weight="normal">fold 15</text>
<text x="685.5" y="436.0" font-family="system-ui,-apple-system,Segoe UI,sans-serif" font-size="11" fill="#656d76" text-anchor="middle" font-weight="normal">50/150</text>
<rect x="714.2" y="125.3" width="12.6" height="134.2" fill="#93c5fd" rx="2"/>
<rect x="728.0" y="259.5" width="12.6" height="1.0" fill="#2563eb" rx="2"/>
<text x="727.4" y="422.0" font-family="system-ui,-apple-system,Segoe UI,sans-serif" font-size="12" fill="#656d76" text-anchor="middle" font-weight="normal">fold 16</text>
<text x="727.4" y="436.0" font-family="system-ui,-apple-system,Segoe UI,sans-serif" font-size="11" fill="#656d76" text-anchor="middle" font-weight="normal">50/150</text>
<rect x="756.1" y="141.6" width="12.6" height="118.0" fill="#93c5fd" rx="2"/>
<rect x="769.9" y="82.9" width="12.6" height="176.6" fill="#2563eb" rx="2"/>
<text x="769.3" y="422.0" font-family="system-ui,-apple-system,Segoe UI,sans-serif" font-size="12" fill="#656d76" text-anchor="middle" font-weight="normal">fold 17</text>
<text x="769.3" y="436.0" font-family="system-ui,-apple-system,Segoe UI,sans-serif" font-size="11" fill="#656d76" text-anchor="middle" font-weight="normal">20/200</text>
<rect x="798.0" y="151.6" width="12.6" height="107.9" fill="#93c5fd" rx="2"/>
<rect x="811.8" y="259.5" width="12.6" height="1.0" fill="#2563eb" rx="2"/>
<text x="811.2" y="422.0" font-family="system-ui,-apple-system,Segoe UI,sans-serif" font-size="12" fill="#656d76" text-anchor="middle" font-weight="normal">fold 18</text>
<text x="811.2" y="436.0" font-family="system-ui,-apple-system,Segoe UI,sans-serif" font-size="11" fill="#656d76" text-anchor="middle" font-weight="normal">5/150</text>
<rect x="839.9" y="168.9" width="12.6" height="90.7" fill="#93c5fd" rx="2"/>
<rect x="853.7" y="162.4" width="12.6" height="97.1" fill="#2563eb" rx="2"/>
<text x="853.1" y="422.0" font-family="system-ui,-apple-system,Segoe UI,sans-serif" font-size="12" fill="#656d76" text-anchor="middle" font-weight="normal">fold 19</text>
<text x="853.1" y="436.0" font-family="system-ui,-apple-system,Segoe UI,sans-serif" font-size="11" fill="#656d76" text-anchor="middle" font-weight="normal">20/200</text>
<rect x="78" y="433" width="11" height="11" rx="2" fill="#93c5fd"/>
<text x="95.0" y="442.0" font-family="system-ui,-apple-system,Segoe UI,sans-serif" font-size="12" fill="#1f2328" text-anchor="start" font-weight="normal">in-sample (fitted)</text>
<rect x="224.0" y="433" width="11" height="11" rx="2" fill="#2563eb"/>
<text x="241.0" y="442.0" font-family="system-ui,-apple-system,Segoe UI,sans-serif" font-size="12" fill="#1f2328" text-anchor="start" font-weight="normal">out-of-sample (unseen)</text>
</svg>